<?xml version="1.0" encoding="UTF-8"?>
<!-- Generated by Pixelmator Pro 3.3.8 -->
<svg width="2048" height="2048" viewBox="0 0 2048 2048" xmlns="http://www.w3.org/2000/svg" xmlns:xlink="http://www.w3.org/1999/xlink">
    <path id="Rounded-Rectangle" fill="none" stroke="#ffffff" stroke-width="200" stroke-linecap="round" d="M 1348.765625 100.53125 L 1407.140625 100.796875 L 1469.046875 101.578125 L 1539.203125 103.78125 L 1587.125 106.671875 L 1615.78125 109.3125 L 1635.75 111.703125 L 1654.015625 114.390625 L 1670.1875 117.296875 L 1697.171875 123.453125 L 1710.828125 127.375 L 1718.4375 129.859375 L 1731.6875 134.765625 L 1738.3125 137.546875 L 1753.828125 145.015625 L 1767.40625 152.671875 L 1777.953125 159.171875 L 1788.40625 166.15625 L 1798.984375 173.75 L 1808.640625 181.1875 L 1818.84375 189.640625 L 1828.203125 197.921875 L 1837.25 206.515625 L 1846.28125 215.71875 L 1854.71875 224.90625 L 1863.234375 234.84375 L 1871.015625 244.578125 L 1878.671875 254.890625 L 1885.765625 265.125 L 1892.5 275.609375 L 1900.71875 289.609375 L 1905.6875 298.921875 L 1908.9375 305.671875 L 1912.09375 312.875 L 1917.109375 325.734375 L 1919.828125 333.59375 L 1924.03125 347.53125 L 1926.375 356.390625 L 1929.859375 371.703125 L 1934.140625 394.78125 L 1937.59375 419.078125 L 1940.59375 447.125 L 1942.90625 476.53125 L 1945.109375 517.96875 L 1946.46875 559.9375 L 1947.21875 598.328125 L 1947.828125 664.640625 L 1948 1299.265625 L 1947.828125 1384.34375 L 1947.21875 1450.65625 L 1945.9375 1507.6875 L 1943.390625 1564.65625 L 1939.875 1609.359375 L 1937.625 1629.65625 L 1935.0625 1648.25 L 1929.921875 1676.90625 L 1925.1875 1697.078125 L 1919.859375 1715.21875 L 1913.90625 1731.640625 L 1907.21875 1746.828125 L 1898.96875 1762.484375 L 1889.09375 1778.78125 L 1882.328125 1788.90625 L 1875.03125 1799.0625 L 1862.984375 1814.4375 L 1854.71875 1824.078125 L 1846.28125 1833.265625 L 1837.25 1842.46875 L 1828.375 1850.890625 L 1813.640625 1863.75 L 1803.90625 1871.515625 L 1794.15625 1878.75 L 1777.4375 1890.125 L 1767.234375 1896.421875 L 1757.875 1901.796875 L 1741.796875 1909.875 L 1735.609375 1912.59375 L 1723.0625 1917.484375 L 1710.453125 1921.71875 L 1696.359375 1925.765625 L 1681.515625 1929.359375 L 1665.703125 1932.5625 L 1648.171875 1935.5 L 1629.15625 1938.125 L 1608.390625 1940.4375 L 1587.171875 1942.3125 L 1564.140625 1943.890625 L 1530.125 1945.625 L 1470.28125 1947.375 L 1383.671875 1948.328125 L 699.46875 1948.453125 L 598.3125 1947.71875 L 526.703125 1945.953125 L 483.578125 1943.875 L 453.8125 1941.734375 L 418.640625 1938.09375 L 394.28125 1934.640625 L 371.703125 1930.453125 L 351.40625 1925.6875 L 333.265625 1920.359375 L 316.84375 1914.40625 L 301.3125 1907.578125 L 290.921875 1902.234375 L 275.46875 1893.1875 L 259.03125 1882.4375 L 249.421875 1875.53125 L 234.09375 1863.53125 L 219.8125 1851.078125 L 206.3125 1838.03125 L 193.15625 1823.9375 L 180.953125 1809.453125 L 168.984375 1793.640625 L 162.46875 1784.21875 L 151.921875 1767.46875 L 144.359375 1754.03125 L 139.203125 1743.578125 L 132.421875 1727.390625 L 128.03125 1715 L 124.109375 1701.984375 L 120.265625 1686.984375 L 116.953125 1671.578125 L 113.890625 1654.515625 L 111.203125 1636.25 L 108.8125 1616.28125 L 106.171875 1587.625 L 103.28125 1539.703125 L 101.09375 1470.34375 L 100.15625 1384.171875 L 100 1273 L 100 776.21875 L 100.296875 641.109375 L 101.53125 559.671875 L 103.6875 500.546875 L 105.578125 469.296875 L 107.40625 446.953125 L 110.390625 419.21875 L 112.90625 400.84375 L 117.078125 376.828125 L 120.1875 362.375 L 125.53125 342.109375 L 129.484375 329.6875 L 134.15625 317.109375 L 138.796875 306.3125 L 146.46875 291.046875 L 155.296875 275.96875 L 166.046875 259.53125 L 173.25 249.5 L 180.53125 240.046875 L 193.15625 225.046875 L 206.421875 210.84375 L 215.21875 202.203125 L 224.21875 193.9375 L 239.03125 181.453125 L 254.3125 169.890625 L 270.203125 159.09375 L 286 149.515625 L 301.65625 141.265625 L 316.84375 134.578125 L 333.265625 128.625 L 351.40625 123.296875 L 371.703125 118.53125 L 394.015625 114.40625 L 425.5 110.078125 L 453.375 107.296875 L 492.84375 104.578125 L 525.796875 103.046875 L 579 101.578125 L 640.84375 100.796875 L 699.21875 100.53125 Z"/>
    <text id="A8X" xml:space="preserve" x="1024" y="1309" text-anchor="middle" font-family="SF Pro Rounded" font-size="800" font-weight="700" fill="#ffffff">A8X</text>
</svg>
