<?xml version="1.0" encoding="UTF-8"?>
<!-- Generated by Pixelmator Pro 3.3.8 -->
<svg width="2048" height="2048" viewBox="0 0 2048 2048" xmlns="http://www.w3.org/2000/svg">
    <path id="Shape" fill="#ffffff" fill-rule="evenodd" stroke="none" d="M 1022.54126 2047.99231 C 1009.005859 2047.902832 992.819763 2047.02832 986.572083 2046.04895 C 980.324341 2045.069702 969.784485 2042.865601 963.150269 2041.151001 C 956.515869 2039.436279 944.061279 2035.694336 935.473267 2032.835449 C 926.885254 2029.976685 913.470947 2024.388916 905.663635 2020.418457 C 897.856384 2016.447876 880.609375 2006.780273 867.337036 1998.935059 C 854.064697 1991.089722 830.749207 1977.461182 815.525085 1968.649292 C 800.300903 1959.837402 776.027283 1945.624512 761.583862 1937.065063 C 747.140381 1928.505615 726.060669 1916.037476 714.740173 1909.358276 C 703.419678 1902.678955 686.811401 1892.949951 677.833008 1887.738037 C 668.854675 1882.526245 648.09436 1870.423218 631.699097 1860.842407 C 615.303833 1851.261719 586.878235 1834.44458 568.531128 1823.470947 C 550.184021 1812.497437 524.952271 1797.490601 512.460632 1790.122559 C 499.969025 1782.754395 485.596527 1774.452148 480.52179 1771.673218 C 475.447021 1768.894165 466.823517 1763.634155 461.358459 1759.984375 C 455.893402 1756.334595 444.075989 1749.332886 435.097626 1744.425049 C 426.119232 1739.517334 412.385529 1731.516235 404.578247 1726.644897 C 396.770966 1721.773682 380.482178 1712.045776 368.380859 1705.027588 C 356.279541 1698.009277 329.770294 1682.16748 309.471375 1669.823486 C 289.172485 1657.479492 266.176483 1643.773438 258.369202 1639.365601 C 250.561905 1634.957642 236.50882 1626.667969 227.140076 1620.944092 C 217.771332 1615.220093 204.748856 1607.414063 198.201233 1603.59729 C 191.65361 1599.780518 179.516815 1592.103027 171.230621 1586.536133 C 162.944397 1580.969238 151.054565 1572.578857 144.808762 1567.890869 C 138.562943 1563.202759 128.406128 1554.204834 122.238022 1547.895264 C 116.069969 1541.585693 106.379486 1530.664551 100.703629 1523.626221 C 95.027733 1516.587646 86.777206 1505.0896 82.369102 1498.075073 C 77.961006 1491.060425 71.768951 1479.891602 68.608978 1473.255371 C 65.449013 1466.619141 60.757126 1454.698486 58.182537 1446.764893 C 55.607994 1438.831299 52.360737 1426.694458 50.9664 1419.794189 C 48.579868 1407.983887 48.398182 1385.484131 47.867428 1036.047607 C 47.456539 765.537109 47.742146 660.119751 48.920319 647.419434 C 49.809502 637.834351 52.176239 623.491455 54.179741 615.546631 C 56.183239 607.601563 59.674908 596.250244 61.939022 590.320923 C 64.203133 584.391846 68.566177 574.631714 71.634613 568.63147 C 74.703049 562.631592 80.010033 553.399902 83.427925 548.116821 C 86.845779 542.83374 94.524399 532.692383 100.491493 525.580811 C 106.458588 518.468994 116.635338 508.215576 123.106499 502.795166 C 129.577621 497.375 140.663651 488.378906 147.742111 482.804077 C 156.420822 475.968994 220.794922 436.820801 345.417694 362.590332 C 447.060822 302.047607 614.058716 202.521118 716.524109 141.42041 C 818.98938 80.31958 910.170593 26.67627 919.148926 22.212769 C 928.127319 17.749268 941.000854 12.517944 947.756775 10.587646 C 954.512695 8.657227 964.733154 6.109009 970.468872 4.925049 C 976.20459 3.740967 988.431641 2.009033 997.640137 1.076172 C 1007.637573 0.063354 1022.506775 -0.275391 1034.547363 0.235352 C 1045.637817 0.705688 1060.460815 2.099121 1067.487305 3.331909 C 1074.513794 4.564575 1086.12561 7.158081 1093.291016 9.095337 C 1100.456421 11.032593 1111.81665 14.918701 1118.535767 17.731445 C 1125.254883 20.544067 1148.315552 33.280762 1169.781738 46.035034 C 1191.247925 58.789307 1362.578003 161.006958 1550.515625 273.185303 C 1738.452881 385.36377 1895.365479 479.233765 1899.209961 481.785278 C 1903.054565 484.336792 1912.856445 492.39502 1920.992065 499.692261 C 1929.127563 506.98938 1940.630249 518.708984 1946.553467 525.735474 C 1952.476685 532.761963 1960.119507 542.83374 1963.537231 548.116821 C 1966.9552 553.399902 1972.262573 562.632446 1975.331543 568.633423 C 1978.400513 574.634399 1982.58667 583.928467 1984.634399 589.286987 C 1986.681885 594.645508 1989.888672 604.576294 1991.760498 611.355469 C 1993.632202 618.134644 1996.115356 630.900391 1997.278198 639.723633 C 1999.10437 653.578979 1999.392578 705.954956 1999.392578 1023.981934 C 1999.392578 1342.008789 1999.10437 1394.384766 1997.278198 1408.240234 C 1996.115356 1417.063477 1993.632202 1429.829102 1991.760498 1436.608398 C 1989.888672 1443.387451 1986.681885 1453.318359 1984.634399 1458.676758 C 1982.58667 1464.035156 1978.400513 1473.329346 1975.331543 1479.330322 C 1972.262573 1485.331543 1966.950195 1494.563965 1963.526367 1499.847168 C 1960.102295 1505.130127 1952.590088 1515.098145 1946.832397 1521.998047 C 1941.074707 1528.898071 1929.216309 1540.715454 1920.480347 1548.258911 C 1911.381348 1556.116211 1896.193848 1567.174316 1884.92334 1574.148804 C 1874.102539 1580.844727 1785.240845 1635.297852 1687.452637 1695.155518 C 1589.664307 1755.013428 1431.247437 1852.033936 1335.415283 1910.756836 C 1239.582886 1969.479614 1156.383789 2019.958984 1150.52832 2022.933228 C 1144.672852 2025.907471 1133.174927 2030.504517 1124.977295 2033.148926 C 1116.779541 2035.793213 1104.004028 2039.257568 1096.587158 2040.847534 C 1089.170288 2042.4375 1075.012939 2044.732178 1065.126343 2045.946655 C 1054.415283 2047.262573 1037.205688 2048.089355 1022.54126 2047.99231 Z M 1147.689331 1773.416016 C 1150.429077 1772.936401 1170.012207 1762.096924 1191.347656 1749.250977 C 1212.627075 1736.438354 1351.241699 1652.740356 1499.380249 1563.255127 C 1679.611938 1454.383667 1770.857544 1398.487061 1775.174805 1394.30481 C 1778.723389 1390.86731 1783.719116 1384.602295 1786.276489 1380.38269 C 1788.833984 1376.163086 1792.609009 1368.025513 1794.665649 1362.299072 C 1798.268799 1352.266357 1798.425415 1350.545166 1798.968872 1314.980469 C 1799.363647 1289.152588 1799.011475 1275.741943 1797.795898 1270.306885 C 1796.562012 1264.789185 1794.661499 1261.142822 1791.231812 1257.713135 C 1786.71521 1253.196533 1785.918457 1252.925903 1778.862061 1253.511108 C 1771.768311 1254.099365 1753.017456 1265.185791 1463.452637 1439.994385 C 1211.938232 1591.832275 1154.251099 1627.21167 1148.295776 1633.279541 C 1144.228638 1637.423584 1138.723877 1645.267212 1135.843018 1651.023315 C 1133.003174 1656.697388 1129.716064 1665.146973 1128.53833 1669.800171 C 1126.88562 1676.32959 1126.396729 1687.195557 1126.396729 1717.407715 C 1126.396729 1755.181763 1126.508911 1756.7771 1129.590576 1762.88855 C 1131.647949 1766.968506 1134.55249 1770.123047 1137.752808 1771.753906 C 1141.150269 1773.485229 1144.29187 1774.010742 1147.689331 1773.416016 Z M 585.746704 1579.249146 C 590.317749 1579.022095 595.339966 1577.801147 597.485779 1576.395142 C 599.548462 1575.043579 603.104553 1571.358643 605.388123 1568.206177 C 607.671631 1565.053833 610.363403 1558.848755 611.369629 1554.417236 C 612.764709 1548.273071 613.125732 1527.822266 612.890076 1468.287109 C 612.720093 1425.347046 612.250366 1362.108154 611.846313 1327.756104 C 611.28595 1280.111572 610.591187 1262.462158 608.916992 1253.342285 C 607.709961 1246.766602 604.896423 1236.684204 602.664673 1230.936768 C 600.432922 1225.189331 595.885193 1215.877441 592.558472 1210.243652 C 589.19928 1204.554932 581.724182 1195.26709 575.746216 1189.354248 C 565.651672 1179.369995 557.491211 1174.25061 444.507568 1107.022949 C 378.246429 1067.596191 318.269897 1032.009766 311.22644 1027.942139 C 304.182983 1023.874512 295.751038 1020.14624 292.48877 1019.65686 C 289.226532 1019.167725 284.000031 1019.456055 280.87439 1020.297852 C 277.662476 1021.162598 272.90332 1024.115967 269.929626 1027.089844 C 266.132538 1030.886841 263.831909 1035.10376 261.66449 1042.239502 C 258.668793 1052.102295 258.6633 1052.476685 259.522675 1188.522217 C 259.99649 1263.539307 260.994232 1330.409302 261.739807 1337.12207 C 262.485413 1343.834717 265.09903 1355.307251 267.547852 1362.616455 C 269.996674 1369.925781 274.682251 1380.668213 277.960266 1386.488525 C 281.264923 1392.356201 288.663544 1402.015381 294.566589 1408.168945 C 304.69043 1418.72229 308.434814 1421.183228 370.870789 1458.317261 C 406.982574 1479.794922 466.388947 1515.158813 502.884796 1536.903687 C 539.380676 1558.648682 571.157166 1577.161133 573.49939 1578.042847 C 575.841614 1578.924316 581.352844 1579.467163 585.746704 1579.249146 Z M 1146.047852 1486.030884 C 1151.057007 1486.030884 1161.057861 1480.441284 1224.922607 1441.946899 C 1265.148682 1417.700684 1337.527222 1374.008911 1385.763306 1344.854248 C 1433.999634 1315.699463 1476.205566 1289.479126 1479.553955 1286.58667 C 1482.902588 1283.694336 1487.540405 1278.040527 1489.860352 1274.022461 C 1492.180176 1270.004639 1495.349121 1262.657715 1496.902344 1257.695801 C 1499.474365 1249.480103 1499.726685 1244.626221 1499.726685 1203.343262 C 1499.726685 1161.222412 1499.530884 1157.628418 1496.962524 1152.59375 C 1495.25293 1149.242798 1492.477173 1146.462646 1489.687256 1145.307007 C 1486.399414 1143.94519 1483.781006 1143.814453 1480.03064 1144.825439 C 1477.200684 1145.588135 1402.703491 1189.793701 1314.481201 1243.059814 C 1188.10022 1319.365234 1152.750122 1341.328491 1147.821045 1346.6073 C 1144.380249 1350.292236 1139.737061 1357.197021 1137.502563 1361.951172 C 1135.268188 1366.705322 1132.653687 1374.343628 1131.692627 1378.925049 C 1130.549072 1384.37793 1129.945557 1401.00415 1129.945557 1427.061401 C 1129.945557 1448.954834 1130.444946 1469.217285 1131.05542 1472.088989 C 1131.665771 1474.960938 1133.998169 1479.272583 1136.238281 1481.670654 C 1139.485352 1485.146729 1141.474487 1486.030884 1146.047852 1486.030884 Z"/>
</svg>
